<?xml version="1.0" encoding="UTF-8"?>
<!DOCTYPE svg PUBLIC "-//W3C//DTD SVG 1.1//EN" "http://www.w3.org/Graphics/SVG/1.1/DTD/svg11.dtd">
<!-- Creator: CorelDRAW X7 -->
<svg xmlns="http://www.w3.org/2000/svg" xml:space="preserve" width="447.22mm" height="81.294mm" version="1.1" style="shape-rendering:geometricPrecision; text-rendering:geometricPrecision; image-rendering:optimizeQuality; fill-rule:evenodd; clip-rule:evenodd"
viewBox="0 0 44722 8129"
 xmlns:xlink="http://www.w3.org/1999/xlink">
 <defs>
  <style type="text/css">
   <![CDATA[
    .fil0 {fill:#2E4274}
   ]]>
  </style>
 </defs>
 <g id="Слой_x0020_1">
  <metadata id="CorelCorpID_0Corel-Layer"/>
  <path class="fil0" d="M10332 1200l4100 0c255,-34 654,-798 879,-1200l-4073 0c-362,-10 -657,787 -906,1200z"/>
  <path class="fil0" d="M10013 1l-511 895c-104,181 -229,302 -378,300l-2908 3c-1736,2 -4279,1860 -4250,3891 2,104 10,208 25,313 494,2143 4346,2063 6351,-757l-2795 0 606 -1003c79,-155 308,-224 627,-216l6538 -1 -513 905c-100,178 -233,301 -479,315l-1985 -1c-490,930 -1256,1701 -2211,2294 -1106,687 -2470,1130 -4009,1190 -1942,3 -4242,-937 -4116,-3216 145,-2622 3793,-4908 6126,-4909l3882 -3z"/>
  <path class="fil0" d="M16844 4183c459,-9 590,-570 731,-756l-2271 5c-580,2 -1064,512 -1323,1005 -336,639 -1262,1966 -1417,2506 -154,535 197,1172 734,1172l1124 0c133,0 452,-101 566,-159 458,-232 693,-662 928,-1091 264,-482 510,-970 733,-1300l-1397 -5c-322,20 -570,471 -697,779l708 -1c-216,385 -263,706 -733,952 -51,26 -195,35 -252,34l-644 -12c-190,-3 -243,-220 -177,-338l1404 -2473c3,-9 8,-17 12,-26 133,-254 523,-296 776,-291l1195 -1z"/>
  <path class="fil0" d="M19279 3427c-271,472 -2040,3435 -2098,3669 -35,147 37,321 182,320l347 -3 -403 702 -296 0c-67,0 -166,-30 -227,-59 -626,-305 -504,-916 -185,-1429l1750 -3006c82,-108 247,-194 400,-194l530 0z"/>
  <path class="fil0" d="M19010 7402c-166,-1 -281,-186 -192,-344l690 -1223c8,-12 17,-23 26,-34 92,-109 240,-206 342,-205l622 2c94,0 143,133 119,250 -45,216 -413,782 -536,1012 -165,307 -367,552 -583,547 -162,-3 -325,-3 -488,-5zm-337 713l805 0c329,8 652,-130 874,-363 300,-316 670,-1123 938,-1538 146,-227 132,-704 56,-849 -146,-315 -433,-459 -815,-489l-409 1c-406,1 -996,151 -1239,577l-797 1400c-239,420 62,1175 587,1261z"/>
  <path class="fil0" d="M24167 3419l-799 1452 543 8c334,5 697,387 758,705 66,339 -90,624 -237,896l-612 1048c-242,414 -555,520 -1002,593l-783 -6c-537,-69 -941,-730 -687,-1186l1747 -3127c35,-63 63,-106 86,-130 141,-149 290,-247 454,-253l532 0zm-1233 2156l843 6c126,-3 158,174 131,308 -20,99 -684,1239 -820,1390 -88,99 -282,146 -411,145l-406 -1c-168,0 -252,-257 -178,-398l841 -1450z"/>
  <path class="fil0" d="M27575 5190c61,-195 211,-305 429,-334l583 0 -1874 3255 -647 4 0 -333c-221,279 -658,383 -996,301 -528,-127 -713,-547 -524,-1091 132,-379 653,-1237 898,-1607 59,-90 176,-206 210,-239 141,-135 413,-280 733,-289l710 -2c223,27 368,142 478,335zm-1529 633c91,-115 206,-206 347,-233 106,-20 439,2 569,3 500,6 -294,1173 -614,1520 -207,224 -950,475 -1022,101 -8,-40 34,-120 44,-139 158,-298 495,-1026 676,-1252z"/>
  <path class="fil0" d="M30759 3408l-2055 3610c-68,103 -39,391 96,407l395 -1 -401 692c-96,0 -237,10 -327,-4 -523,-81 -742,-509 -623,-989 81,-322 618,-1195 810,-1525 358,-613 717,-1224 1075,-1837 100,-207 271,-350 507,-351l523 -2z"/>
  <path class="fil0" d="M31023 4856c122,-253 365,-706 696,-699l550 11 -402 687 726 0c-5,12 -72,203 -189,379 -109,165 -266,338 -514,351l-424 0 -845 1458c-21,52 -24,118 -12,180 20,106 84,201 182,201l337 0 -420 691 -296 4c-493,-10 -862,-507 -649,-918l841 -1624 -493 -5c109,-253 248,-491 465,-661 61,-41 143,-58 227,-57l220 2z"/>
  <path class="fil0" d="M33184 4868l584 -6 -1 380c502,-366 853,-389 1432,-387 -274,338 -198,892 -956,862 -734,-29 -1157,804 -1466,1330 -174,296 -427,751 -604,1066l-855 2 1866 -3247z"/>
  <path class="fil0" d="M36440 4851l-1246 2235c-84,145 -12,357 159,366 324,17 627,-157 845,-343 518,-440 708,-1106 1053,-1667 144,-236 322,-593 643,-589l540 4 -1837 3257 -712 -4 14 -306c-287,294 -1019,436 -1318,166 -222,-200 -254,-501 -217,-799 41,-324 778,-1552 1018,-1950 76,-157 267,-365 456,-366l602 -4z"/>
  <path class="fil0" d="M40429 5576c460,28 630,-530 747,-721l-1552 0c-337,0 -759,161 -969,532l-838 1483c-6,12 -13,26 -19,39 -60,143 -74,368 -40,505 83,335 378,660 779,702 5,0 10,1 16,1l924 -2 394 -691 -1152 -3c-138,0 -175,-104 -182,-160 -51,-247 537,-1159 757,-1459 101,-138 221,-213 399,-224l736 -2z"/>
  <path class="fil0" d="M43460 3423l-1362 2395 212 4 1222 -891c149,-82 199,-77 359,-75l831 -1 -2007 1508 287 1752 -788 0 -213 -1567 -334 0 -912 1567 -860 0 2397 -4122c136,-291 312,-564 568,-571l600 1z"/>
 </g>
</svg>
